<svg width="24" height="24" viewBox="0 0 30 28" fill="none" xmlns="http://www.w3.org/2000/svg">
<path fill-rule="evenodd" clip-rule="evenodd" d="M23.8012 13.8679C23.8012 16.4655 22.6644 19.5882 20.8677 21.2016V6.53418C22.6644 8.14759 23.8012 11.2703 23.8012 13.8679ZM7.22261 21.2016H3.26681C1.64899 21.2016 0.333328 19.8859 0.333328 18.2681V9.46766C0.333328 7.84984 1.64899 6.53418 3.26681 6.53418H7.22261L15.6549 0.913628C16.1037 0.614413 16.6845 0.583611 17.1598 0.840291C17.6365 1.0955 17.9342 1.59273 17.9342 2.13396V25.6018C17.9342 26.143 17.6365 26.6402 17.1598 26.8955C16.9427 27.0113 16.7051 27.0685 16.4675 27.0685C16.1829 27.0685 15.8984 26.9849 15.6534 26.8221L7.22261 21.2016ZM7.66703 9.46766H3.26681V18.2681H7.66703C7.6927 18.2681 7.71617 18.2751 7.73985 18.2822C7.75947 18.2881 7.77923 18.294 7.8005 18.296C7.89731 18.3048 7.98824 18.3238 8.08212 18.3517C8.18039 18.381 8.27132 18.4177 8.3608 18.4661C8.37687 18.4741 8.39424 18.4796 8.41171 18.485C8.43569 18.4925 8.45985 18.5001 8.48107 18.5145L15.0007 22.8619V4.87383L8.48107 9.22124C8.46194 9.23348 8.44043 9.24014 8.4188 9.24682C8.39897 9.25296 8.37904 9.25912 8.3608 9.26964C8.27132 9.31805 8.17892 9.35325 8.07918 9.38405C7.98678 9.41045 7.89731 9.43099 7.80343 9.43979C7.78241 9.44176 7.76256 9.44756 7.7427 9.45335C7.71823 9.4605 7.69375 9.46766 7.66703 9.46766ZM29.6667 13.8679C29.6667 19.8683 26.0409 24.7995 20.8677 27.0685V24.135C24.3688 22.1021 26.7332 18.1991 26.7332 13.8679C26.7332 9.53658 24.3688 5.63359 20.8677 3.60069V0.667207C26.0409 2.93625 29.6667 7.86743 29.6667 13.8679Z" fill="currentColor"/>
</svg>
